<?xml version="1.0" standalone="no"?><!DOCTYPE svg PUBLIC "-//W3C//DTD SVG 1.1//EN" "http://www.w3.org/Graphics/SVG/1.1/DTD/svg11.dtd"><svg t="1484041065427" class="icon" style="" viewBox="0 0 1024 1024" version="1.1" xmlns="http://www.w3.org/2000/svg" p-id="3138" xmlns:xlink="http://www.w3.org/1999/xlink" width="48" height="48"><defs><style type="text/css"></style></defs><path d="M821.925167 821.678038c-13.103436 13.103436-34.349319 13.103436-47.452755 0l-572.529585-572.529585c-13.103436-13.103436-13.103436-34.349319 0-47.452755l0 0c13.103436-13.103436 34.349319-13.103436 47.452755 0l572.529585 572.529585C835.029626 787.328719 835.029626 808.573579 821.925167 821.678038L821.925167 821.678038z" p-id="3139" fill="#999999"></path><path d="M201.942827 821.677015c-13.103436-13.103436-13.103436-34.349319 0-47.452755l572.529585-572.529585c13.103436-13.103436 34.349319-13.103436 47.452755 0l0 0c13.103436 13.103436 13.103436 34.349319 0 47.452755l-572.529585 572.529585C236.292146 834.781474 215.047286 834.781474 201.942827 821.677015L201.942827 821.677015z" p-id="3140" fill="#999999"></path></svg>