<?xml version="1.0" standalone="no"?><!DOCTYPE svg PUBLIC "-//W3C//DTD SVG 1.1//EN" "http://www.w3.org/Graphics/SVG/1.1/DTD/svg11.dtd"><svg t="1484041015254" class="icon" style="" viewBox="0 0 1024 1024" version="1.1" xmlns="http://www.w3.org/2000/svg" p-id="2327" xmlns:xlink="http://www.w3.org/1999/xlink" width="48" height="48"><defs><style type="text/css"></style></defs><path d="M421.66304 773.983783c-47.985898 0-94.550423-9.403161-138.400117-27.949562-42.340317-17.908882-80.360236-43.540655-113.003703-76.184123s-58.276265-70.66441-76.184123-113.004727c-18.546402-43.848671-27.950586-90.413196-27.950586-138.399093s9.404184-94.550423 27.950586-138.399093c17.907858-42.340317 43.540655-80.360236 76.184123-113.004727 32.643468-32.643468 70.663386-58.275241 113.003703-76.184123 43.849694-18.546402 90.413196-27.950586 138.400117-27.950586s94.550423 9.404184 138.399093 27.950586c42.340317 17.907858 80.360236 43.540655 113.004727 76.184123 32.643468 32.643468 58.275241 70.66441 76.184123 113.004727 18.546402 43.848671 27.949562 90.413196 27.949562 138.399093s-9.403161 94.550423-27.949562 138.399093c-17.908882 42.340317-43.540655 80.360236-76.184123 113.004727s-70.66441 58.275241-113.004727 76.184123C516.213463 764.579599 469.648938 773.983783 421.66304 773.983783zM421.66304 114.073058c-167.831426 0-304.373219 136.540769-304.373219 304.372196 0 167.831426 136.541793 304.372196 304.373219 304.372196s304.372196-136.541793 304.372196-304.372196C726.035236 250.613828 589.494467 114.073058 421.66304 114.073058z" p-id="2328" fill="#ffffff"></path><path d="M928.909783 959.278953c-0.001023 0-0.001023 0-0.002047 0-7.264451 0-12.847609-2.487657-15.529695-3.970428-2.056845-1.13587-3.946892-2.552126-5.616928-4.204765L637.186675 683.337273c-9.955746-9.851369-10.137895-25.876344-0.409322-35.95284 9.727549-10.076496 25.750477-10.458189 35.944654-0.853437l277.225929 261.114996c1.238201 1.166569 2.357697 2.451842 3.340071 3.840468 9.240455 13.054317 7.316639 30.462802-4.474918 40.492226C943.279049 956.686918 936.21005 959.278953 928.909783 959.278953z" p-id="2329" fill="#ffffff"></path></svg>